PathFileType	4	(X/Y/Z)	D:\Documents\Paper\paper_current\paper_step_1_data\data_step_3\marker\70DL\subject_01.tsv
DataRate	CameraRate	NumFrames	NumMarkers	Units	OrigDataRate	OrigDataStartFrame	OrigNumFrames
200	200	9	39	mm	200	2441	200
Frame#	Time	Top.Head			L.Acromium			R.Acromium			Sternum			L.ASIS			R.ASIS			V.Sacral			L.Ankle.Lat			L.Toe.Tip			R.Heel			R.Ankle.Med			R.Ankle.Lat			L.Toe.Med			L.Toe.Lat			L.Heel			L.Ankle.Med			L.Shank1			L.Shank2			R.Toe.Tip			R.Toe.Med			R.Toe.Lat			L.Thigh2			L.Thigh1			L.Thigh3			R.Thigh3			R.Thigh1			R.Thigh2			R.Shank1			R.Shank2			R.Shank3			L.Shank3			L.Shank4			R.Shank4			L.Thigh4			R.Thigh4			R.Heel.Lat			R.Heel.Med			L.Heel.Lat			L.Heel.Med		
		X1	Y1	Z1	X2	Y2	Z2	X3	Y3	Z3	X4	Y4	Z4	X5	Y5	Z5	X6	Y6	Z6	X7	Y7	Z7	X8	Y8	Z8	X9	Y9	Z9	X10	Y10	Z10	X11	Y11	Z11	X12	Y12	Z12	X13	Y13	Z13	X14	Y14	Z14	X15	Y15	Z15	X16	Y16	Z16	X17	Y17	Z17	X18	Y18	Z18	X19	Y19	Z19	X20	Y20	Z20	X21	Y21	Z21	X22	Y22	Z22	X23	Y23	Z23	X24	Y24	Z24	X25	Y25	Z25	X26	Y26	Z26	X27	Y27	Z27	X28	Y28	Z28	X29	Y29	Z29	X30	Y30	Z30	X31	Y31	Z31	X32	Y32	Z32	X33	Y33	Z33	X34	Y34	Z34	X35	Y35	Z35	X36	Y36	Z36	X37	Y37	Z37	X38	Y38	Z38	X39	Y39	Z39
2442	12.205	-189.359	2210.262	414.088	-425.805	2014.157	277.159	-409.566	2035.999	596.589	-342.034	1923.4	444.706	-457.807	1538.794	358.938	-454.618	1541.329	592.38	-622.121	1576.013	480.701	-398.562	798.084	335.192	-214.97	758.334	327.955	-737.804	840.729	596.045	-603.554	835.508	590.005	-653.487	868.322	661.921	-256.785	748.044	387.478	-302.724	748.92	293.533	-491.921	737.032	382.17	-386.402	806.894	421.653	-294.102	1073.553	309.716	-308.168	992.431	299.021	-517.045	731.526	741.41	-556.403	728.84	676.466	-615.262	780.089	752.042	-333.764	1310.355	311.324	-384.405	1375.19	306.814	-432.968	1337.698	287.468	-480.796	1237.326	644.57	-425.344	1255.739	672.149	-390.114	1180.785	664.843	-415.318	1037.7	686.24	-479.527	979.98	687.125	-456.973	1085.428	680.386	-355.794	1084.718	296.937	-372.687	998.534	288.833	-518.467	1030.166	682.778	-381.208	1266.224	292.049	-443.471	1158.775	637.782	-722.096	839.562	663.138	-681.365	784.327	587.999	-443.99	727.44	324.616	-424.792	729.703	426.694
2443	12.21	-188.429	2212.916	413.397	-424.513	2016.632	276.341	-408.276	2038.569	595.776	-340.765	1925.952	443.886	-456.538	1541.319	358.002	-453.547	1543.851	591.445	-620.988	1578.555	479.767	-398.637	798.167	335.071	-214.951	758.322	327.947	-734.092	845.521	592.597	-599.491	841.043	584.687	-648.502	872.445	657.687	-256.802	748.015	387.471	-302.709	748.925	293.555	-491.909	737.057	382.203	-386.592	806.991	421.635	-295.431	1074.184	309.624	-309.165	992.996	298.949	-510.37	735.837	733.034	-550.794	733.756	668.703	-608.777	783.686	745.904	-333.938	1311.02	311.068	-384.01	1376.279	306.34	-432.857	1339.159	287	-476.883	1239.967	642.321	-421.585	1258.862	669.82	-385.495	1184.311	662.013	-409.864	1040.873	682.181	-474.347	983.411	682.773	-451.368	1088.854	677.179	-357.173	1085.088	296.884	-373.81	998.828	288.679	-513.154	1033.856	679.248	-381.571	1267.25	292.036	-438.789	1161.899	634.93	-717.311	843.666	659.423	-677.49	789.517	582.936	-443.991	727.47	324.626	-424.788	729.73	426.716
2444	12.215	-187.501	2215.55	412.697	-423.26	2019.112	275.549	-407.017	2041.094	594.996	-339.516	1928.473	443.093	-455.233	1543.762	357.09	-452.488	1546.331	590.538	-619.862	1581.063	478.828	-398.715	798.253	334.971	-214.93	758.295	327.959	-730.265	850.041	589.245	-595.351	846.382	579.457	-643.502	876.363	653.507	-256.813	747.994	387.466	-302.694	748.932	293.58	-491.9	737.082	382.231	-386.779	807.081	421.625	-296.742	1074.803	309.564	-310.143	993.543	298.926	-503.679	739.889	724.678	-545.144	738.443	660.954	-602.221	786.95	739.78	-334.099	1311.661	310.862	-383.594	1377.338	305.905	-432.726	1340.597	286.544	-473.104	1242.572	640.093	-417.938	1261.963	667.51	-381.018	1187.812	659.223	-404.454	1043.94	678.12	-469.145	986.679	678.475	-445.834	1092.136	674.06	-358.527	1085.44	296.847	-374.877	999.117	288.565	-507.86	1037.359	675.81	-381.938	1268.306	291.998	-434.252	1165.015	632.104	-712.385	847.425	655.775	-673.503	794.478	577.929	-443.991	727.499	324.637	-424.782	729.772	426.734
2445	12.22	-186.569	2218.168	411.978	-422.039	2021.591	274.783	-405.791	2043.574	594.247	-338.286	1930.965	442.325	-453.953	1546.217	356.232	-451.439	1548.77	589.654	-618.736	1583.532	477.881	-398.797	798.34	334.895	-214.908	758.255	327.988	-726.317	854.263	585.966	-591.161	851.49	574.287	-638.496	880.065	649.392	-256.819	747.98	387.462	-302.681	748.943	293.607	-491.893	737.109	382.252	-386.96	807.161	421.623	-298.033	1075.407	309.535	-311.094	994.073	298.941	-496.992	743.702	716.383	-539.461	742.906	653.256	-595.614	789.901	733.683	-334.247	1312.277	310.7	-383.16	1378.365	305.508	-432.576	1342.01	286.098	-469.453	1245.139	637.883	-414.409	1265.034	665.217	-376.694	1191.282	656.468	-399.087	1046.903	674.072	-463.927	989.781	674.227	-440.376	1095.271	671.027	-359.858	1085.773	296.819	-375.87	999.404	288.502	-502.587	1040.664	672.469	-382.316	1269.382	291.93	-429.864	1168.115	629.304	-707.324	850.826	652.17	-669.394	799.183	572.983	-443.992	727.527	324.648	-424.779	729.825	426.747
2446	12.225	-185.638	2220.769	411.244	-420.844	2024.065	274.044	-404.6	2046.006	593.527	-337.073	1933.427	441.581	-452.596	1548.585	355.347	-450.394	1551.171	588.792	-617.602	1585.96	476.924	-398.881	798.424	334.845	-214.885	758.209	328.027	-722.246	858.161	582.739	-586.949	856.327	569.158	-633.481	883.536	645.348	-256.824	747.968	387.462	-302.673	748.958	293.632	-491.888	737.135	382.267	-387.137	807.233	421.63	-299.303	1075.996	309.535	-312.01	994.586	298.988	-490.318	747.294	708.181	-533.742	747.148	645.646	-588.973	792.559	727.628	-334.386	1312.867	310.578	-382.71	1379.36	305.148	-432.409	1343.393	285.663	-465.928	1247.673	635.685	-411	1268.067	662.942	-372.531	1194.714	653.745	-393.768	1049.766	670.052	-458.701	992.721	670.027	-435.002	1098.256	668.077	-361.164	1086.088	296.801	-376.787	999.687	288.491	-497.343	1043.765	669.222	-382.709	1270.463	291.836	-425.625	1171.189	626.529	-702.146	853.869	648.587	-665.151	803.61	568.104	-443.993	727.553	324.66	-424.78	729.888	426.755
2447	12.23	-184.714	2223.355	410.508	-419.671	2026.527	273.334	-403.445	2048.391	592.834	-335.879	1935.86	440.862	-451.277	1550.913	354.547	-449.35	1553.539	587.948	-616.45	1588.342	475.951	-398.965	798.504	334.82	-214.863	758.163	328.069	-718.051	861.713	579.544	-582.731	860.858	564.063	-628.452	886.754	641.377	-256.826	747.956	387.465	-302.673	748.979	293.654	-491.885	737.16	382.28	-387.308	807.294	421.645	-300.553	1076.567	309.564	-312.885	995.086	299.058	-483.656	750.683	700.104	-527.974	751.172	638.155	-582.309	794.939	721.626	-334.516	1313.432	310.49	-382.248	1380.323	304.823	-432.226	1344.746	285.242	-462.524	1250.182	633.496	-407.709	1271.054	660.687	-368.534	1198.101	651.05	-388.505	1052.533	666.071	-453.477	995.508	665.874	-429.723	1101.095	665.202	-362.447	1086.386	296.793	-377.641	999.959	288.529	-492.137	1046.66	666.061	-383.116	1271.533	291.722	-421.535	1174.228	623.779	-696.882	856.565	645.009	-660.766	807.736	563.298	-443.995	727.579	324.673	-424.792	729.954	426.754
2448	12.235	-183.806	2225.921	409.789	-418.515	2028.973	272.654	-402.327	2050.729	592.165	-334.701	1938.262	440.166	-449.914	1553.163	353.776	-448.303	1555.876	587.119	-615.27	1590.673	474.959	-399.048	798.576	334.815	-214.839	758.123	328.108	-713.734	864.899	576.368	-578.502	865.059	559.022	-623.402	889.7	637.478	-256.827	747.943	387.471	-302.681	749.005	293.67	-491.885	737.182	382.293	-387.474	807.346	421.668	-301.784	1077.121	309.619	-313.719	995.571	299.148	-476.995	753.886	692.179	-522.142	754.981	630.809	-575.632	797.059	715.689	-334.639	1313.972	310.433	-381.777	1381.251	304.53	-432.029	1346.066	284.837	-459.237	1252.67	631.317	-404.532	1273.988	658.451	-364.7	1201.435	648.382	-383.312	1055.212	662.138	-448.269	998.154	661.767	-424.554	1103.792	662.393	-363.708	1086.67	296.797	-378.451	1000.208	288.605	-486.984	1049.351	662.976	-383.532	1272.578	291.595	-417.589	1177.224	621.057	-691.553	858.921	641.425	-656.231	811.544	558.567	-443.997	727.602	324.687	-424.818	730.02	426.744
2449	12.24	-182.925	2228.468	409.099	-417.372	2031.399	272.003	-401.248	2053.02	591.519	-333.54	1940.632	439.494	-448.604	1555.351	352.918	-447.249	1558.184	586.301	-614.048	1592.948	473.942	-399.128	798.641	334.827	-214.814	758.09	328.143	-709.297	867.702	573.196	-574.234	868.919	554.082	-618.325	892.356	633.645	-256.827	747.927	387.481	-302.699	749.038	293.682	-491.89	737.199	382.308	-387.636	807.388	421.699	-302.997	1077.659	309.699	-314.515	996.043	299.258	-470.318	756.919	684.433	-516.231	758.578	623.627	-568.943	798.929	709.827	-334.756	1314.484	310.402	-381.301	1382.146	304.267	-431.821	1347.354	284.449	-456.06	1255.136	629.15	-401.463	1276.862	656.239	-361.019	1204.71	645.744	-378.202	1057.813	658.264	-443.092	1000.667	657.713	-419.509	1106.356	659.64	-364.951	1086.941	296.814	-379.238	1000.425	288.704	-481.899	1051.846	659.955	-383.952	1273.585	291.466	-413.783	1180.169	618.365	-686.173	860.936	637.831	-651.543	815.018	553.916	-444	727.624	324.701	-424.859	730.078	426.726
2450	12.245	-182.074	2230.991	408.451	-416.239	2033.802	271.378	-400.208	2055.265	590.896	-332.395	1942.971	438.845	-447.287	1557.471	352.179	-446.184	1560.462	585.489	-612.775	1595.162	472.898	-399.205	798.697	334.849	-214.785	758.063	328.174	-704.74	870.11	570.019	-569.885	872.441	549.297	-613.22	894.703	629.873	-256.824	747.907	387.496	-302.724	749.076	293.689	-491.902	737.211	382.327	-387.794	807.421	421.736	-304.196	1078.183	309.802	-315.283	996.503	299.384	-463.607	759.793	676.89	-510.22	761.964	616.628	-562.241	800.556	704.049	-334.872	1314.971	310.395	-380.824	1383.007	304.028	-431.604	1348.609	284.079	-452.985	1257.574	627	-398.494	1279.67	654.053	-357.48	1207.915	643.138	-373.193	1060.344	654.46	-437.965	1003.058	653.721	-414.604	1108.795	656.93	-366.178	1087.2	296.845	-380.013	1000.607	288.812	-476.898	1054.157	656.985	-384.37	1274.545	291.34	-410.109	1183.057	615.705	-680.747	862.603	634.224	-646.698	818.147	549.344	-444.002	727.643	324.715	-424.911	730.127	426.703
